<?xml version="1.0" encoding="UTF-8" standalone="no"?>
<!DOCTYPE svg PUBLIC "-//W3C//DTD SVG 1.1//EN"
 "http://www.w3.org/Graphics/SVG/1.1/DTD/svg11.dtd">
<!-- Generated by graphviz version 14.0.0 (20250921.2048)
 -->
<!-- Title: ForecastPro_Chen_ER Pages: 1 -->
<svg width="2479pt" height="3468pt"
 viewBox="0.00 0.00 2479.00 3468.00" xmlns="http://www.w3.org/2000/svg" xmlns:xlink="http://www.w3.org/1999/xlink">
<g id="graph0" class="graph" transform="scale(2.84344 2.84344) rotate(0) translate(36 1183.53)">
<title>ForecastPro_Chen_ER</title>
<polygon fill="white" stroke="none" points="-36,36 -36,-1183.53 835.89,-1183.53 835.89,36 -36,36"/>
<text xml:space="preserve" text-anchor="middle" x="399.94" y="-1118.83" font-family="Arial Bold" font-size="26.00">ForecastPro Entity Relationship Diagram</text>
<!-- Users -->
<g id="node1" class="node">
<title>Users</title>
<path fill="#dae8fc" stroke="black" stroke-width="2" d="M193.39,-1004.21C193.39,-1004.21 128.11,-1004.21 128.11,-1004.21 122.83,-1004.21 117.55,-998.93 117.55,-993.65 117.55,-993.65 117.55,-983.09 117.55,-983.09 117.55,-977.81 122.83,-972.53 128.11,-972.53 128.11,-972.53 193.39,-972.53 193.39,-972.53 198.67,-972.53 203.95,-977.81 203.95,-983.09 203.95,-983.09 203.95,-993.65 203.95,-993.65 203.95,-998.93 198.67,-1004.21 193.39,-1004.21"/>
<text xml:space="preserve" text-anchor="middle" x="160.75" y="-982.94" font-family="Arial" font-size="14.00">Users</text>
</g>
<!-- r_owns -->
<g id="node10" class="node">
<title>r_owns</title>
<polygon fill="#fef3c7" stroke="black" stroke-width="2" points="382.22,-1017.49 344.42,-990.49 382.22,-963.49 420.02,-990.49 382.22,-1017.49"/>
<text xml:space="preserve" text-anchor="middle" x="382.22" y="-986.79" font-family="Arial" font-size="11.00">OWNS</text>
</g>
<!-- Users&#45;&gt;r_owns -->
<g id="edge51" class="edge">
<title>Users&#45;&gt;r_owns</title>
<path fill="none" stroke="#1e293b" stroke-width="1.2" d="M204.24,-988.78C241.15,-989.14 294.1,-989.65 332.65,-990.02"/>
<polygon fill="#1e293b" stroke="#1e293b" stroke-width="1.2" points="332.52,-993.51 342.55,-990.11 332.58,-986.52 332.52,-993.51"/>
<text xml:space="preserve" text-anchor="middle" x="259.45" y="-992.45" font-family="Arial Bold" font-size="11.00"> &#160;1 &#160;</text>
</g>
<!-- r_sends -->
<g id="node11" class="node">
<title>r_sends</title>
<polygon fill="#fef3c7" stroke="black" stroke-width="2" points="193.42,-936.75 155.62,-909.75 193.42,-882.75 231.22,-909.75 193.42,-936.75"/>
<text xml:space="preserve" text-anchor="middle" x="193.42" y="-906.05" font-family="Arial" font-size="11.00">SENDS</text>
</g>
<!-- Users&#45;&gt;r_sends -->
<g id="edge53" class="edge">
<title>Users&#45;&gt;r_sends</title>
<path fill="none" stroke="#1e293b" stroke-width="1.2" d="M167.52,-972.08C171.17,-963.29 175.8,-952.14 180.14,-941.7"/>
<polygon fill="#1e293b" stroke="#1e293b" stroke-width="1.2" points="183.37,-943.06 183.97,-932.48 176.9,-940.38 183.37,-943.06"/>
<text xml:space="preserve" text-anchor="middle" x="164.83" y="-959.94" font-family="Arial Bold" font-size="11.00"> &#160;1 &#160;</text>
</g>
<!-- r_receives -->
<g id="node12" class="node">
<title>r_receives</title>
<polygon fill="#fef3c7" stroke="black" stroke-width="2" points="274.23,-850.72 222.88,-823.72 274.23,-796.72 325.59,-823.72 274.23,-850.72"/>
<text xml:space="preserve" text-anchor="middle" x="274.23" y="-820.02" font-family="Arial" font-size="11.00">RECEIVES</text>
</g>
<!-- Users&#45;&gt;r_receives -->
<g id="edge55" class="edge">
<title>Users&#45;&gt;r_receives</title>
<path fill="none" stroke="#1e293b" stroke-width="1.2" d="M171.84,-972.28C190.77,-944.81 229.62,-888.45 253.64,-853.6"/>
<polygon fill="#1e293b" stroke="#1e293b" stroke-width="1.2" points="256.47,-855.66 259.26,-845.44 250.7,-851.69 256.47,-855.66"/>
<text xml:space="preserve" text-anchor="middle" x="203.74" y="-915.99" font-family="Arial Bold" font-size="11.00"> &#160;1 &#160;</text>
</g>
<!-- Vendors -->
<g id="node2" class="node">
<title>Vendors</title>
<path fill="#dae8fc" stroke="black" stroke-width="2" d="M635,-1008.07C635,-1008.07 569.72,-1008.07 569.72,-1008.07 564.44,-1008.07 559.16,-1002.79 559.16,-997.51 559.16,-997.51 559.16,-986.95 559.16,-986.95 559.16,-981.67 564.44,-976.39 569.72,-976.39 569.72,-976.39 635,-976.39 635,-976.39 640.28,-976.39 645.56,-981.67 645.56,-986.95 645.56,-986.95 645.56,-997.51 645.56,-997.51 645.56,-1002.79 640.28,-1008.07 635,-1008.07"/>
<text xml:space="preserve" text-anchor="middle" x="602.36" y="-986.81" font-family="Arial" font-size="14.00">Vendors</text>
</g>
<!-- r_handles -->
<g id="node18" class="node">
<title>r_handles</title>
<polygon fill="#fef3c7" stroke="black" stroke-width="2" points="561.96,-693.61 513.47,-666.61 561.96,-639.61 610.44,-666.61 561.96,-693.61"/>
<text xml:space="preserve" text-anchor="middle" x="561.96" y="-662.91" font-family="Arial" font-size="11.00">HANDLES</text>
</g>
<!-- Vendors&#45;&gt;r_handles -->
<g id="edge67" class="edge">
<title>Vendors&#45;&gt;r_handles</title>
<path fill="none" stroke="#1e293b" stroke-width="1.2" d="M600.36,-976.08C594.19,-926.35 575.35,-774.57 566.56,-703.74"/>
<polygon fill="#1e293b" stroke="#1e293b" stroke-width="1.2" points="570.07,-703.59 565.37,-694.1 563.13,-704.46 570.07,-703.59"/>
<text xml:space="preserve" text-anchor="middle" x="574.46" y="-842.96" font-family="Arial Bold" font-size="11.00"> &#160;1 &#160;</text>
</g>
<!-- Messages -->
<g id="node3" class="node">
<title>Messages</title>
<path fill="#dae8fc" stroke="black" stroke-width="2" d="M195.28,-766.75C195.28,-766.75 130,-766.75 130,-766.75 124.72,-766.75 119.44,-761.47 119.44,-756.19 119.44,-756.19 119.44,-745.63 119.44,-745.63 119.44,-740.35 124.72,-735.07 130,-735.07 130,-735.07 195.28,-735.07 195.28,-735.07 200.56,-735.07 205.84,-740.35 205.84,-745.63 205.84,-745.63 205.84,-756.19 205.84,-756.19 205.84,-761.47 200.56,-766.75 195.28,-766.75"/>
<text xml:space="preserve" text-anchor="middle" x="162.64" y="-746.64" font-family="Arial" font-size="12.00">Messages</text>
</g>
<!-- Categories -->
<g id="node4" class="node">
<title>Categories</title>
<path fill="#dae8fc" stroke="black" stroke-width="2" d="M416.36,-777.82C416.36,-777.82 336.68,-777.82 336.68,-777.82 331.4,-777.82 326.12,-772.54 326.12,-767.26 326.12,-767.26 326.12,-756.7 326.12,-756.7 326.12,-751.42 331.4,-746.14 336.68,-746.14 336.68,-746.14 416.36,-746.14 416.36,-746.14 421.64,-746.14 426.92,-751.42 426.92,-756.7 426.92,-756.7 426.92,-767.26 426.92,-767.26 426.92,-772.54 421.64,-777.82 416.36,-777.82"/>
<text xml:space="preserve" text-anchor="middle" x="376.52" y="-756.55" font-family="Arial" font-size="14.00">Categories</text>
</g>
<!-- r_contains -->
<g id="node13" class="node">
<title>r_contains</title>
<polygon fill="#fef3c7" stroke="black" stroke-width="2" points="478.87,-779.61 427.51,-752.61 478.87,-725.61 530.22,-752.61 478.87,-779.61"/>
<text xml:space="preserve" text-anchor="middle" x="478.87" y="-748.91" font-family="Arial" font-size="11.00">CONTAINS</text>
</g>
<!-- Categories&#45;&gt;r_contains -->
<g id="edge57" class="edge">
<title>Categories&#45;&gt;r_contains</title>
<path fill="none" stroke="#1e293b" stroke-width="1.2" d="M427.39,-757.32C427.54,-757.31 427.68,-757.3 427.83,-757.28"/>
<polygon fill="#1e293b" stroke="#1e293b" stroke-width="1.2" points="422.85,-761.25 432.49,-756.86 422.22,-754.28 422.85,-761.25"/>
<text xml:space="preserve" text-anchor="middle" x="418.61" y="-760.35" font-family="Arial Bold" font-size="11.00"> &#160;1 &#160;</text>
</g>
<!-- Products -->
<g id="node5" class="node">
<title>Products</title>
<path fill="#dae8fc" stroke="black" stroke-width="2" d="M658.23,-766.23C658.23,-766.23 592.95,-766.23 592.95,-766.23 587.67,-766.23 582.39,-760.95 582.39,-755.67 582.39,-755.67 582.39,-745.11 582.39,-745.11 582.39,-739.83 587.67,-734.55 592.95,-734.55 592.95,-734.55 658.23,-734.55 658.23,-734.55 663.51,-734.55 668.79,-739.83 668.79,-745.11 668.79,-745.11 668.79,-755.67 668.79,-755.67 668.79,-760.95 663.51,-766.23 658.23,-766.23"/>
<text xml:space="preserve" text-anchor="middle" x="625.59" y="-744.97" font-family="Arial" font-size="14.00">Products</text>
</g>
<!-- r_generates -->
<g id="node14" class="node">
<title>r_generates</title>
<polygon fill="#fef3c7" stroke="black" stroke-width="2" points="152.23,-635.5 92.26,-608.5 152.23,-581.5 212.2,-608.5 152.23,-635.5"/>
<text xml:space="preserve" text-anchor="middle" x="152.23" y="-604.8" font-family="Arial" font-size="11.00">GENERATES</text>
</g>
<!-- Products&#45;&gt;r_generates -->
<g id="edge59" class="edge">
<title>Products&#45;&gt;r_generates</title>
<path fill="none" stroke="#1e293b" stroke-width="1.2" d="M581.91,-737.3C493.12,-710.69 292.23,-650.47 200.07,-622.84"/>
<polygon fill="#1e293b" stroke="#1e293b" stroke-width="1.2" points="201.18,-619.52 190.59,-620 199.17,-626.23 201.18,-619.52"/>
<text xml:space="preserve" text-anchor="middle" x="381.99" y="-683.12" font-family="Arial Bold" font-size="11.00"> &#160;1 &#160;</text>
</g>
<!-- r_hasfc -->
<g id="node15" class="node">
<title>r_hasfc</title>
<polygon fill="#fef3c7" stroke="black" stroke-width="2" points="501.42,-607.45 436.7,-580.45 501.42,-553.45 566.14,-580.45 501.42,-607.45"/>
<text xml:space="preserve" text-anchor="middle" x="501.42" y="-583.5" font-family="Arial" font-size="11.00">HAS</text>
<text xml:space="preserve" text-anchor="middle" x="501.42" y="-570" font-family="Arial" font-size="11.00">FORECAST</text>
</g>
<!-- Products&#45;&gt;r_hasfc -->
<g id="edge61" class="edge">
<title>Products&#45;&gt;r_hasfc</title>
<path fill="none" stroke="#1e293b" stroke-width="1.2" d="M613.68,-734.1C592.99,-705.77 550.07,-647.04 523.71,-610.96"/>
<polygon fill="#1e293b" stroke="#1e293b" stroke-width="1.2" points="526.54,-608.9 517.82,-602.89 520.89,-613.03 526.54,-608.9"/>
<text xml:space="preserve" text-anchor="middle" x="559.7" y="-675.58" font-family="Arial Bold" font-size="11.00"> &#160;1 &#160;</text>
</g>
<!-- r_hasinv -->
<g id="node16" class="node">
<title>r_hasinv</title>
<polygon fill="#fef3c7" stroke="black" stroke-width="2" points="656.45,-595 588.3,-568 656.45,-541 724.59,-568 656.45,-595"/>
<text xml:space="preserve" text-anchor="middle" x="656.45" y="-571.05" font-family="Arial" font-size="11.00">HAS</text>
<text xml:space="preserve" text-anchor="middle" x="656.45" y="-557.55" font-family="Arial" font-size="11.00">INVENTORY</text>
</g>
<!-- Products&#45;&gt;r_hasinv -->
<g id="edge63" class="edge">
<title>Products&#45;&gt;r_hasinv</title>
<path fill="none" stroke="#1e293b" stroke-width="1.2" d="M628.33,-734.21C633.19,-705.45 643.46,-644.75 650.15,-605.21"/>
<polygon fill="#1e293b" stroke="#1e293b" stroke-width="1.2" points="653.58,-605.91 651.8,-595.47 646.68,-604.74 653.58,-605.91"/>
<text xml:space="preserve" text-anchor="middle" x="630.24" y="-672.76" font-family="Arial Bold" font-size="11.00"> &#160;1 &#160;</text>
</g>
<!-- r_reqin -->
<g id="node17" class="node">
<title>r_reqin</title>
<polygon fill="#fef3c7" stroke="black" stroke-width="2" points="536.3,-393.99 463.35,-366.99 536.3,-339.99 609.24,-366.99 536.3,-393.99"/>
<text xml:space="preserve" text-anchor="middle" x="536.3" y="-370.04" font-family="Arial" font-size="11.00">REQUESTED</text>
<text xml:space="preserve" text-anchor="middle" x="536.3" y="-356.54" font-family="Arial" font-size="11.00">IN</text>
</g>
<!-- Products&#45;&gt;r_reqin -->
<g id="edge65" class="edge">
<title>Products&#45;&gt;r_reqin</title>
<path fill="none" stroke="#1e293b" stroke-width="1.2" d="M621.87,-734.41C608.65,-677.66 563.78,-484.99 544.84,-403.68"/>
<polygon fill="#1e293b" stroke="#1e293b" stroke-width="1.2" points="548.28,-403.01 542.6,-394.06 541.46,-404.6 548.28,-403.01"/>
<text xml:space="preserve" text-anchor="middle" x="574.35" y="-572.09" font-family="Arial Bold" font-size="11.00"> &#160;1 &#160;</text>
</g>
<!-- Sales -->
<g id="node6" class="node">
<title>Sales</title>
<path fill="#dae8fc" stroke="black" stroke-width="2" d="M167.15,-442.01C167.15,-442.01 101.87,-442.01 101.87,-442.01 96.59,-442.01 91.31,-436.73 91.31,-431.45 91.31,-431.45 91.31,-420.89 91.31,-420.89 91.31,-415.61 96.59,-410.33 101.87,-410.33 101.87,-410.33 167.15,-410.33 167.15,-410.33 172.43,-410.33 177.71,-415.61 177.71,-420.89 177.71,-420.89 177.71,-431.45 177.71,-431.45 177.71,-436.73 172.43,-442.01 167.15,-442.01"/>
<text xml:space="preserve" text-anchor="middle" x="134.51" y="-421.9" font-family="Arial" font-size="12.00">Sales</text>
</g>
<!-- Forecasts -->
<g id="node7" class="node">
<title>Forecasts</title>
<path fill="#dae8fc" stroke="black" stroke-width="2" d="M429.84,-461.47C429.84,-461.47 350.16,-461.47 350.16,-461.47 344.88,-461.47 339.6,-456.19 339.6,-450.91 339.6,-450.91 339.6,-440.35 339.6,-440.35 339.6,-435.07 344.88,-429.79 350.16,-429.79 350.16,-429.79 429.84,-429.79 429.84,-429.79 435.12,-429.79 440.4,-435.07 440.4,-440.35 440.4,-440.35 440.4,-450.91 440.4,-450.91 440.4,-456.19 435.12,-461.47 429.84,-461.47"/>
<text xml:space="preserve" text-anchor="middle" x="390" y="-441.36" font-family="Arial" font-size="12.00">Forecasts</text>
</g>
<!-- Inventory -->
<g id="node8" class="node">
<title>Inventory</title>
<path fill="#dae8fc" stroke="black" stroke-width="2" d="M698.94,-454.03C698.94,-454.03 619.26,-454.03 619.26,-454.03 613.98,-454.03 608.7,-448.75 608.7,-443.47 608.7,-443.47 608.7,-432.91 608.7,-432.91 608.7,-427.63 613.98,-422.35 619.26,-422.35 619.26,-422.35 698.94,-422.35 698.94,-422.35 704.22,-422.35 709.5,-427.63 709.5,-432.91 709.5,-432.91 709.5,-443.47 709.5,-443.47 709.5,-448.75 704.22,-454.03 698.94,-454.03"/>
<text xml:space="preserve" text-anchor="middle" x="659.1" y="-433.91" font-family="Arial" font-size="12.00">Inventory</text>
</g>
<!-- StockRequests -->
<g id="node9" class="node">
<title>StockRequests</title>
<path fill="#dae8fc" stroke="black" stroke-width="2" d="M414.25,-134.12C414.25,-134.12 334.57,-134.12 334.57,-134.12 329.29,-134.12 324.01,-128.84 324.01,-123.56 324.01,-123.56 324.01,-113 324.01,-113 324.01,-107.72 329.29,-102.44 334.57,-102.44 334.57,-102.44 414.25,-102.44 414.25,-102.44 419.53,-102.44 424.81,-107.72 424.81,-113 424.81,-113 424.81,-123.56 424.81,-123.56 424.81,-128.84 419.53,-134.12 414.25,-134.12"/>
<text xml:space="preserve" text-anchor="middle" x="374.41" y="-114.01" font-family="Arial" font-size="12.00">StockRequests</text>
</g>
<!-- r_owns&#45;&gt;Vendors -->
<g id="edge52" class="edge">
<title>r_owns&#45;&gt;Vendors</title>
<path fill="none" stroke="#1e293b" stroke-width="1.2" d="M420.07,-990.79C455.13,-991.07 507.68,-991.48 547.37,-991.8"/>
<polygon fill="#1e293b" stroke="#1e293b" stroke-width="1.2" points="547.14,-995.29 557.16,-991.87 547.19,-988.29 547.14,-995.29"/>
<text xml:space="preserve" text-anchor="middle" x="468.72" y="-994.34" font-family="Arial Bold" font-size="11.00"> &#160;0..1 &#160;</text>
</g>
<!-- r_sends&#45;&gt;Messages -->
<g id="edge54" class="edge">
<title>r_sends&#45;&gt;Messages</title>
<path fill="none" stroke="#1e293b" stroke-width="1.2" d="M188.74,-885.63C183.16,-856.8 173.83,-808.66 167.97,-778.41"/>
<polygon fill="#1e293b" stroke="#1e293b" stroke-width="1.2" points="171.45,-777.96 166.11,-768.81 164.58,-779.29 171.45,-777.96"/>
<text xml:space="preserve" text-anchor="middle" x="167.86" y="-835.07" font-family="Arial Bold" font-size="11.00"> &#160;M &#160;</text>
</g>
<!-- r_receives&#45;&gt;Messages -->
<g id="edge56" class="edge">
<title>r_receives&#45;&gt;Messages</title>
<path fill="none" stroke="#1e293b" stroke-width="1.2" d="M250.84,-808.46C235.35,-798.35 214.75,-784.91 197.36,-773.57"/>
<polygon fill="#1e293b" stroke="#1e293b" stroke-width="1.2" points="199.36,-770.69 189.08,-768.16 195.54,-776.56 199.36,-770.69"/>
<text xml:space="preserve" text-anchor="middle" x="213.6" y="-794.06" font-family="Arial Bold" font-size="11.00"> &#160;M &#160;</text>
</g>
<!-- r_contains&#45;&gt;Products -->
<g id="edge58" class="edge">
<title>r_contains&#45;&gt;Products</title>
<path fill="none" stroke="#1e293b" stroke-width="1.2" d="M529.77,-751.84C542.96,-751.64 557.22,-751.43 570.6,-751.22"/>
<polygon fill="#1e293b" stroke="#1e293b" stroke-width="1.2" points="570.33,-754.73 580.28,-751.08 570.23,-747.73 570.33,-754.73"/>
<text xml:space="preserve" text-anchor="middle" x="539.69" y="-754.58" font-family="Arial Bold" font-size="11.00"> &#160;M &#160;</text>
</g>
<!-- r_generates&#45;&gt;Sales -->
<g id="edge60" class="edge">
<title>r_generates&#45;&gt;Sales</title>
<path fill="none" stroke="#1e293b" stroke-width="1.2" d="M149.69,-582.38C146.38,-548.35 140.62,-489.1 137.23,-454.17"/>
<polygon fill="#1e293b" stroke="#1e293b" stroke-width="1.2" points="140.72,-453.92 136.27,-444.31 133.75,-454.6 140.72,-453.92"/>
<text xml:space="preserve" text-anchor="middle" x="132.96" y="-521.33" font-family="Arial Bold" font-size="11.00"> &#160;M &#160;</text>
</g>
<!-- r_hasfc&#45;&gt;Forecasts -->
<g id="edge62" class="edge">
<title>r_hasfc&#45;&gt;Forecasts</title>
<path fill="none" stroke="#1e293b" stroke-width="1.2" d="M484.5,-559.98C464.66,-535.96 431.78,-496.18 410.5,-470.44"/>
<polygon fill="#1e293b" stroke="#1e293b" stroke-width="1.2" points="413.46,-468.52 404.39,-463.04 408.07,-472.98 413.46,-468.52"/>
<text xml:space="preserve" text-anchor="middle" x="437" y="-518.26" font-family="Arial Bold" font-size="11.00"> &#160;M &#160;</text>
</g>
<!-- r_hasinv&#45;&gt;Inventory -->
<g id="edge64" class="edge">
<title>r_hasinv&#45;&gt;Inventory</title>
<path fill="none" stroke="#1e293b" stroke-width="1.2" d="M657,-540.78C657.45,-518.81 658.08,-488 658.53,-465.89"/>
<polygon fill="#1e293b" stroke="#1e293b" stroke-width="1.2" points="662.03,-466.2 658.73,-456.13 655.03,-466.06 662.03,-466.2"/>
<text xml:space="preserve" text-anchor="middle" x="647.27" y="-506.39" font-family="Arial Bold" font-size="11.00"> &#160;M &#160;</text>
</g>
<!-- r_reqin&#45;&gt;StockRequests -->
<g id="edge66" class="edge">
<title>r_reqin&#45;&gt;StockRequests</title>
<path fill="none" stroke="#1e293b" stroke-width="1.2" d="M521.93,-344.92C492.08,-299.07 423.49,-193.68 391.46,-144.48"/>
<polygon fill="#1e293b" stroke="#1e293b" stroke-width="1.2" points="394.41,-142.6 386.03,-136.13 388.55,-146.42 394.41,-142.6"/>
<text xml:space="preserve" text-anchor="middle" x="446.2" y="-247.75" font-family="Arial Bold" font-size="11.00"> &#160;M &#160;</text>
</g>
<!-- r_handles&#45;&gt;StockRequests -->
<g id="edge68" class="edge">
<title>r_handles&#45;&gt;StockRequests</title>
<path fill="none" stroke="#1e293b" stroke-width="1.2" d="M554.14,-643.75C524.09,-555.89 416.1,-240.17 383.68,-145.38"/>
<polygon fill="#1e293b" stroke="#1e293b" stroke-width="1.2" points="387.08,-144.51 380.53,-136.18 380.46,-146.78 387.08,-144.51"/>
<text xml:space="preserve" text-anchor="middle" x="458.41" y="-397.61" font-family="Arial Bold" font-size="11.00"> &#160;M &#160;</text>
</g>
<!-- u_id -->
<g id="node19" class="node">
<title>u_id</title>
<ellipse fill="white" stroke="black" cx="168.01" cy="-1084.77" rx="27" ry="20.65"/>
<text xml:space="preserve" text-anchor="start" x="162.38" y="-1086.32" font-family="Arial" font-size="11.00"> </text>
<text xml:space="preserve" text-anchor="start" x="165.38" y="-1086.32" font-family="Arial" text-decoration="underline" font-size="11.00">id</text>
<text xml:space="preserve" text-anchor="start" x="155.26" y="-1075.32" font-family="Arial" font-size="11.00">(PK) </text>
</g>
<!-- u_id&#45;&gt;Users -->
<g id="edge1" class="edge">
<title>u_id&#45;&gt;Users</title>
<path fill="none" stroke="#64748b" stroke-width="0.9" d="M166.43,-1063.86C165.09,-1046.02 163.19,-1020.76 161.96,-1004.47"/>
</g>
<!-- u_un -->
<g id="node20" class="node">
<title>u_un</title>
<ellipse fill="white" stroke="black" cx="75.8" cy="-1001.25" rx="35.49" ry="18"/>
<text xml:space="preserve" text-anchor="middle" x="75.8" y="-997.55" font-family="Arial" font-size="11.00">username</text>
</g>
<!-- u_un&#45;&gt;Users -->
<g id="edge2" class="edge">
<title>u_un&#45;&gt;Users</title>
<path fill="none" stroke="#64748b" stroke-width="0.9" d="M109.86,-996.09C112.26,-995.72 114.7,-995.35 117.14,-994.98"/>
</g>
<!-- u_pw -->
<g id="node21" class="node">
<title>u_pw</title>
<ellipse fill="white" stroke="black" cx="75.77" cy="-943.7" rx="34.58" ry="18"/>
<text xml:space="preserve" text-anchor="middle" x="75.77" y="-940" font-family="Arial" font-size="11.00">password</text>
</g>
<!-- u_pw&#45;&gt;Users -->
<g id="edge3" class="edge">
<title>u_pw&#45;&gt;Users</title>
<path fill="none" stroke="#64748b" stroke-width="0.9" d="M100.35,-956.62C109.57,-961.47 120.16,-967.03 129.87,-972.14"/>
</g>
<!-- u_ro -->
<g id="node22" class="node">
<title>u_ro</title>
<ellipse fill="white" stroke="black" cx="266.3" cy="-1011.4" rx="27" ry="18"/>
<text xml:space="preserve" text-anchor="middle" x="266.3" y="-1007.7" font-family="Arial" font-size="11.00">role</text>
</g>
<!-- u_ro&#45;&gt;Users -->
<g id="edge4" class="edge">
<title>u_ro&#45;&gt;Users</title>
<path fill="none" stroke="#64748b" stroke-width="0.9" d="M240.21,-1005.7C229.34,-1003.33 216.43,-1000.52 204.2,-997.85"/>
</g>
<!-- u_en -->
<g id="node23" class="node">
<title>u_en</title>
<ellipse fill="white" stroke="black" cx="266" cy="-953.79" rx="29.54" ry="18"/>
<text xml:space="preserve" text-anchor="middle" x="266" y="-950.09" font-family="Arial" font-size="11.00">enabled</text>
</g>
<!-- u_en&#45;&gt;Users -->
<g id="edge5" class="edge">
<title>u_en&#45;&gt;Users</title>
<path fill="none" stroke="#64748b" stroke-width="0.9" d="M239.71,-962.43C229,-965.95 216.32,-970.11 204.29,-974.06"/>
</g>
<!-- v_id -->
<g id="node24" class="node">
<title>v_id</title>
<ellipse fill="white" stroke="black" cx="600.45" cy="-1088.89" rx="27" ry="20.65"/>
<text xml:space="preserve" text-anchor="start" x="594.83" y="-1090.44" font-family="Arial" font-size="11.00"> </text>
<text xml:space="preserve" text-anchor="start" x="597.83" y="-1090.44" font-family="Arial" text-decoration="underline" font-size="11.00">id</text>
<text xml:space="preserve" text-anchor="start" x="587.7" y="-1079.44" font-family="Arial" font-size="11.00">(PK) </text>
</g>
<!-- v_id&#45;&gt;Vendors -->
<g id="edge6" class="edge">
<title>v_id&#45;&gt;Vendors</title>
<path fill="none" stroke="#64748b" stroke-width="0.9" d="M600.87,-1067.91C601.22,-1050.04 601.72,-1024.71 602.04,-1008.38"/>
</g>
<!-- v_ufk -->
<g id="node25" class="node">
<title>v_ufk</title>
<ellipse fill="white" stroke="black" cx="509.79" cy="-1024.52" rx="42.83" ry="18"/>
<text xml:space="preserve" text-anchor="middle" x="509.79" y="-1020.82" font-family="Arial" font-size="11.00">user_id (FK)</text>
</g>
<!-- v_ufk&#45;&gt;Vendors -->
<g id="edge7" class="edge">
<title>v_ufk&#45;&gt;Vendors</title>
<path fill="none" stroke="#64748b" stroke-width="0.9" d="M543.21,-1012.86C548.28,-1011.09 553.58,-1009.24 558.84,-1007.41"/>
</g>
<!-- v_name -->
<g id="node26" class="node">
<title>v_name</title>
<ellipse fill="white" stroke="black" cx="689.73" cy="-1010.31" rx="27" ry="18"/>
<text xml:space="preserve" text-anchor="middle" x="689.73" y="-1006.61" font-family="Arial" font-size="11.00">name</text>
</g>
<!-- v_name&#45;&gt;Vendors -->
<g id="edge8" class="edge">
<title>v_name&#45;&gt;Vendors</title>
<path fill="none" stroke="#64748b" stroke-width="0.9" d="M663.52,-1004.88C657.99,-1003.74 652.01,-1002.5 646.04,-1001.27"/>
</g>
<!-- v_con -->
<g id="node27" class="node">
<title>v_con</title>
<ellipse fill="white" stroke="black" cx="689.74" cy="-952.74" rx="27.24" ry="18"/>
<text xml:space="preserve" text-anchor="middle" x="689.74" y="-949.04" font-family="Arial" font-size="11.00">contact</text>
</g>
<!-- v_con&#45;&gt;Vendors -->
<g id="edge9" class="edge">
<title>v_con&#45;&gt;Vendors</title>
<path fill="none" stroke="#64748b" stroke-width="0.9" d="M666.79,-963.11C658.09,-967.05 647.97,-971.62 638.35,-975.96"/>
</g>
<!-- v_st -->
<g id="node28" class="node">
<title>v_st</title>
<ellipse fill="white" stroke="black" cx="606.34" cy="-904.87" rx="27" ry="18"/>
<text xml:space="preserve" text-anchor="middle" x="606.34" y="-901.17" font-family="Arial" font-size="11.00">status</text>
</g>
<!-- v_st&#45;&gt;Vendors -->
<g id="edge10" class="edge">
<title>v_st&#45;&gt;Vendors</title>
<path fill="none" stroke="#64748b" stroke-width="0.9" d="M605.51,-922.97C604.81,-938.56 603.79,-960.87 603.11,-975.92"/>
</g>
<!-- m_id -->
<g id="node29" class="node">
<title>m_id</title>
<ellipse fill="white" stroke="black" cx="128.17" cy="-884.2" rx="27" ry="19.23"/>
<text xml:space="preserve" text-anchor="start" x="122.92" y="-885.7" font-family="Arial" font-size="10.00"> </text>
<text xml:space="preserve" text-anchor="start" x="125.92" y="-885.7" font-family="Arial" text-decoration="underline" font-size="10.00">id</text>
<text xml:space="preserve" text-anchor="start" x="116.92" y="-875.7" font-family="Arial" font-size="10.00">(PK) </text>
</g>
<!-- m_id&#45;&gt;Messages -->
<g id="edge11" class="edge">
<title>m_id&#45;&gt;Messages</title>
<path fill="none" stroke="#64748b" stroke-width="0.9" d="M133.18,-864.82C140.02,-838.39 152.14,-791.54 158.49,-766.97"/>
</g>
<!-- m_snd -->
<g id="node30" class="node">
<title>m_snd</title>
<ellipse fill="white" stroke="black" cx="71.77" cy="-780.02" rx="43.64" ry="18"/>
<text xml:space="preserve" text-anchor="middle" x="71.77" y="-776.52" font-family="Arial" font-size="10.00">sender_id (FK)</text>
</g>
<!-- m_snd&#45;&gt;Messages -->
<g id="edge12" class="edge">
<title>m_snd&#45;&gt;Messages</title>
<path fill="none" stroke="#64748b" stroke-width="0.9" d="M106.65,-768.85C110.75,-767.53 114.98,-766.18 119.18,-764.83"/>
</g>
<!-- m_rcv -->
<g id="node31" class="node">
<title>m_rcv</title>
<ellipse fill="white" stroke="black" cx="72.21" cy="-722.48" rx="46.74" ry="18"/>
<text xml:space="preserve" text-anchor="middle" x="72.21" y="-718.98" font-family="Arial" font-size="10.00">receiver_id (FK)</text>
</g>
<!-- m_rcv&#45;&gt;Messages -->
<g id="edge13" class="edge">
<title>m_rcv&#45;&gt;Messages</title>
<path fill="none" stroke="#64748b" stroke-width="0.9" d="M109,-734.04C112.32,-735.09 115.71,-736.15 119.09,-737.22"/>
</g>
<!-- m_sub -->
<g id="node32" class="node">
<title>m_sub</title>
<ellipse fill="white" stroke="black" cx="233.55" cy="-751.74" rx="27" ry="18"/>
<text xml:space="preserve" text-anchor="middle" x="233.55" y="-748.24" font-family="Arial" font-size="10.00">subject</text>
</g>
<!-- m_sub&#45;&gt;Messages -->
<g id="edge14" class="edge">
<title>m_sub&#45;&gt;Messages</title>
<path fill="none" stroke="#64748b" stroke-width="0.9" d="M206.34,-751.43C206.18,-751.42 206.03,-751.42 205.87,-751.42"/>
</g>
<!-- m_body -->
<g id="node33" class="node">
<title>m_body</title>
<ellipse fill="white" stroke="black" cx="241.09" cy="-693.27" rx="29.45" ry="18"/>
<text xml:space="preserve" text-anchor="middle" x="241.09" y="-689.77" font-family="Arial" font-size="10.00">message</text>
</g>
<!-- m_body&#45;&gt;Messages -->
<g id="edge15" class="edge">
<title>m_body&#45;&gt;Messages</title>
<path fill="none" stroke="#64748b" stroke-width="0.9" d="M222.1,-707.23C210.85,-715.49 196.55,-726 184.8,-734.64"/>
</g>
<!-- m_st -->
<g id="node34" class="node">
<title>m_st</title>
<ellipse fill="white" stroke="black" cx="247.54" cy="-635.67" rx="27" ry="18"/>
<text xml:space="preserve" text-anchor="middle" x="247.54" y="-632.17" font-family="Arial" font-size="10.00">status</text>
</g>
<!-- m_st&#45;&gt;Messages -->
<g id="edge16" class="edge">
<title>m_st&#45;&gt;Messages</title>
<path fill="none" stroke="#64748b" stroke-width="0.9" d="M235.37,-652.18C219.14,-674.21 190.59,-712.98 174.51,-734.8"/>
</g>
<!-- m_ca -->
<g id="node35" class="node">
<title>m_ca</title>
<ellipse fill="white" stroke="black" cx="159.27" cy="-680.26" rx="33" ry="18"/>
<text xml:space="preserve" text-anchor="middle" x="159.27" y="-676.76" font-family="Arial" font-size="10.00">created_at</text>
</g>
<!-- m_ca&#45;&gt;Messages -->
<g id="edge17" class="edge">
<title>m_ca&#45;&gt;Messages</title>
<path fill="none" stroke="#64748b" stroke-width="0.9" d="M160.14,-698.46C160.68,-709.74 161.36,-724.1 161.88,-734.95"/>
</g>
<!-- c_id -->
<g id="node36" class="node">
<title>c_id</title>
<ellipse fill="white" stroke="black" cx="377.81" cy="-874.24" rx="27" ry="20.65"/>
<text xml:space="preserve" text-anchor="start" x="372.18" y="-875.79" font-family="Arial" font-size="11.00"> </text>
<text xml:space="preserve" text-anchor="start" x="375.18" y="-875.79" font-family="Arial" text-decoration="underline" font-size="11.00">id</text>
<text xml:space="preserve" text-anchor="start" x="365.06" y="-864.79" font-family="Arial" font-size="11.00">(PK) </text>
</g>
<!-- c_id&#45;&gt;Categories -->
<g id="edge18" class="edge">
<title>c_id&#45;&gt;Categories</title>
<path fill="none" stroke="#64748b" stroke-width="0.9" d="M377.57,-853.12C377.32,-831.4 376.94,-798.03 376.71,-778.27"/>
</g>
<!-- c_name -->
<g id="node37" class="node">
<title>c_name</title>
<ellipse fill="white" stroke="black" cx="434.03" cy="-824.94" rx="27" ry="18"/>
<text xml:space="preserve" text-anchor="middle" x="434.03" y="-821.24" font-family="Arial" font-size="11.00">name</text>
</g>
<!-- c_name&#45;&gt;Categories -->
<g id="edge19" class="edge">
<title>c_name&#45;&gt;Categories</title>
<path fill="none" stroke="#64748b" stroke-width="0.9" d="M419.82,-809.37C411.17,-799.91 400.14,-787.83 391.38,-778.24"/>
</g>
<!-- p_id -->
<g id="node38" class="node">
<title>p_id</title>
<ellipse fill="white" stroke="black" cx="606.45" cy="-843.11" rx="27" ry="20.65"/>
<text xml:space="preserve" text-anchor="start" x="600.82" y="-844.66" font-family="Arial" font-size="11.00"> </text>
<text xml:space="preserve" text-anchor="start" x="603.82" y="-844.66" font-family="Arial" text-decoration="underline" font-size="11.00">id</text>
<text xml:space="preserve" text-anchor="start" x="593.7" y="-833.66" font-family="Arial" font-size="11.00">(PK) </text>
</g>
<!-- p_id&#45;&gt;Products -->
<g id="edge20" class="edge">
<title>p_id&#45;&gt;Products</title>
<path fill="none" stroke="#64748b" stroke-width="0.9" d="M610.7,-822.53C614.18,-805.67 619.03,-782.14 622.24,-766.6"/>
</g>
<!-- p_cfk -->
<g id="node39" class="node">
<title>p_cfk</title>
<ellipse fill="white" stroke="black" cx="523.62" cy="-824.4" rx="55.2" ry="18"/>
<text xml:space="preserve" text-anchor="middle" x="523.62" y="-820.7" font-family="Arial" font-size="11.00">category_id (FK)</text>
</g>
<!-- p_cfk&#45;&gt;Products -->
<g id="edge21" class="edge">
<title>p_cfk&#45;&gt;Products</title>
<path fill="none" stroke="#64748b" stroke-width="0.9" d="M546.76,-807.61C563.68,-795.33 586.51,-778.76 603.24,-766.61"/>
</g>
<!-- p_name -->
<g id="node40" class="node">
<title>p_name</title>
<ellipse fill="white" stroke="black" cx="706.27" cy="-780.23" rx="27" ry="18"/>
<text xml:space="preserve" text-anchor="middle" x="706.27" y="-776.53" font-family="Arial" font-size="11.00">name</text>
</g>
<!-- p_name&#45;&gt;Products -->
<g id="edge22" class="edge">
<title>p_name&#45;&gt;Products</title>
<path fill="none" stroke="#64748b" stroke-width="0.9" d="M682.5,-771.44C678.22,-769.86 673.65,-768.16 669.02,-766.45"/>
</g>
<!-- p_pri -->
<g id="node41" class="node">
<title>p_pri</title>
<ellipse fill="white" stroke="black" cx="710.88" cy="-719.7" rx="27" ry="18"/>
<text xml:space="preserve" text-anchor="middle" x="710.88" y="-716" font-family="Arial" font-size="11.00">price</text>
</g>
<!-- p_pri&#45;&gt;Products -->
<g id="edge23" class="edge">
<title>p_pri&#45;&gt;Products</title>
<path fill="none" stroke="#64748b" stroke-width="0.9" d="M686.66,-728.41C681.15,-730.4 675.12,-732.57 669.08,-734.74"/>
</g>
<!-- p_stk -->
<g id="node42" class="node">
<title>p_stk</title>
<ellipse fill="white" stroke="black" cx="659.27" cy="-639.78" rx="47.87" ry="18"/>
<text xml:space="preserve" text-anchor="middle" x="659.27" y="-636.08" font-family="Arial" font-size="11.00">stock_quantity</text>
</g>
<!-- p_stk&#45;&gt;Products -->
<g id="edge24" class="edge">
<title>p_stk&#45;&gt;Products</title>
<path fill="none" stroke="#64748b" stroke-width="0.9" d="M653.71,-658.05C647.25,-679.28 636.68,-713.99 630.5,-734.26"/>
</g>
<!-- s_id -->
<g id="node43" class="node">
<title>s_id</title>
<ellipse fill="white" stroke="black" cx="147.07" cy="-534.8" rx="27" ry="19.23"/>
<text xml:space="preserve" text-anchor="start" x="141.82" y="-536.3" font-family="Arial" font-size="10.00"> </text>
<text xml:space="preserve" text-anchor="start" x="144.82" y="-536.3" font-family="Arial" text-decoration="underline" font-size="10.00">id</text>
<text xml:space="preserve" text-anchor="start" x="135.82" y="-526.3" font-family="Arial" font-size="10.00">(PK) </text>
</g>
<!-- s_id&#45;&gt;Sales -->
<g id="edge25" class="edge">
<title>s_id&#45;&gt;Sales</title>
<path fill="none" stroke="#64748b" stroke-width="0.9" d="M144.83,-515.38C142.41,-494.51 138.62,-461.72 136.37,-442.24"/>
</g>
<!-- s_pfk -->
<g id="node44" class="node">
<title>s_pfk</title>
<ellipse fill="white" stroke="black" cx="45.41" cy="-456.86" rx="45.41" ry="18"/>
<text xml:space="preserve" text-anchor="middle" x="45.41" y="-453.36" font-family="Arial" font-size="10.00">product_id (FK)</text>
</g>
<!-- s_pfk&#45;&gt;Sales -->
<g id="edge26" class="edge">
<title>s_pfk&#45;&gt;Sales</title>
<path fill="none" stroke="#64748b" stroke-width="0.9" d="M80.11,-444.91C83.63,-443.7 87.24,-442.45 90.83,-441.22"/>
</g>
<!-- s_qty -->
<g id="node45" class="node">
<title>s_qty</title>
<ellipse fill="white" stroke="black" cx="214.73" cy="-481.3" rx="40.09" ry="18"/>
<text xml:space="preserve" text-anchor="middle" x="214.73" y="-477.8" font-family="Arial" font-size="10.00">quantity_sold</text>
</g>
<!-- s_qty&#45;&gt;Sales -->
<g id="edge27" class="edge">
<title>s_qty&#45;&gt;Sales</title>
<path fill="none" stroke="#64748b" stroke-width="0.9" d="M192.38,-465.94C181.72,-458.61 168.96,-449.84 158.13,-442.41"/>
</g>
<!-- s_dt -->
<g id="node46" class="node">
<title>s_dt</title>
<ellipse fill="white" stroke="black" cx="86.9" cy="-319.44" rx="30.78" ry="18"/>
<text xml:space="preserve" text-anchor="middle" x="86.9" y="-315.94" font-family="Arial" font-size="10.00">sale_date</text>
</g>
<!-- s_dt&#45;&gt;Sales -->
<g id="edge28" class="edge">
<title>s_dt&#45;&gt;Sales</title>
<path fill="none" stroke="#64748b" stroke-width="0.9" d="M94.76,-337.06C103.79,-357.31 118.49,-390.27 127.26,-409.92"/>
</g>
<!-- f_id -->
<g id="node47" class="node">
<title>f_id</title>
<ellipse fill="white" stroke="black" cx="382.15" cy="-548.02" rx="27" ry="18"/>
<text xml:space="preserve" text-anchor="start" x="377.28" y="-549.47" font-family="Arial" font-size="9.00"> </text>
<text xml:space="preserve" text-anchor="start" x="379.53" y="-549.47" font-family="Arial" text-decoration="underline" font-size="9.00">id</text>
<text xml:space="preserve" text-anchor="start" x="372.03" y="-540.47" font-family="Arial" font-size="9.00">(PK) </text>
</g>
<!-- f_id&#45;&gt;Forecasts -->
<g id="edge29" class="edge">
<title>f_id&#45;&gt;Forecasts</title>
<path fill="none" stroke="#64748b" stroke-width="0.9" d="M383.56,-529.72C385.04,-510.39 387.35,-480.22 388.77,-461.76"/>
</g>
<!-- f_pfk -->
<g id="node48" class="node">
<title>f_pfk</title>
<ellipse fill="white" stroke="black" cx="297.18" cy="-481.83" rx="41.96" ry="18"/>
<text xml:space="preserve" text-anchor="middle" x="297.18" y="-478.53" font-family="Arial" font-size="9.00">product_id (FK)</text>
</g>
<!-- f_pfk&#45;&gt;Forecasts -->
<g id="edge30" class="edge">
<title>f_pfk&#45;&gt;Forecasts</title>
<path fill="none" stroke="#64748b" stroke-width="0.9" d="M328.61,-469.57C334.92,-467.11 341.64,-464.49 348.24,-461.92"/>
</g>
<!-- f_ma -->
<g id="node49" class="node">
<title>f_ma</title>
<ellipse fill="white" stroke="black" cx="228.76" cy="-423.75" rx="50.58" ry="18"/>
<text xml:space="preserve" text-anchor="middle" x="228.76" y="-420.45" font-family="Arial" font-size="9.00">moving_avg_value</text>
</g>
<!-- f_ma&#45;&gt;Forecasts -->
<g id="edge31" class="edge">
<title>f_ma&#45;&gt;Forecasts</title>
<path fill="none" stroke="#64748b" stroke-width="0.9" d="M276.27,-430.19C296.05,-432.88 319.06,-436 339.19,-438.73"/>
</g>
<!-- f_reg -->
<g id="node50" class="node">
<title>f_reg</title>
<ellipse fill="white" stroke="black" cx="170.32" cy="-366.22" rx="47.37" ry="18"/>
<text xml:space="preserve" text-anchor="middle" x="170.32" y="-363.49" font-family="Arial" font-size="8.00">ml_regression_value</text>
</g>
<!-- f_reg&#45;&gt;Forecasts -->
<g id="edge32" class="edge">
<title>f_reg&#45;&gt;Forecasts</title>
<path fill="none" stroke="#64748b" stroke-width="0.9" d="M205.13,-378.8C243,-392.49 303.66,-414.42 345.09,-429.4"/>
</g>
<!-- f_ps -->
<g id="node51" class="node">
<title>f_ps</title>
<ellipse fill="white" stroke="black" cx="482.68" cy="-499.83" rx="43.25" ry="18"/>
<text xml:space="preserve" text-anchor="middle" x="482.68" y="-496.53" font-family="Arial" font-size="9.00">predicted_sales</text>
</g>
<!-- f_ps&#45;&gt;Forecasts -->
<g id="edge33" class="edge">
<title>f_ps&#45;&gt;Forecasts</title>
<path fill="none" stroke="#64748b" stroke-width="0.9" d="M457.36,-485.02C445.14,-477.87 430.44,-469.28 417.9,-461.95"/>
</g>
<!-- f_pr -->
<g id="node52" class="node">
<title>f_pr</title>
<ellipse fill="white" stroke="black" cx="508.86" cy="-438.74" rx="43.54" ry="18"/>
<text xml:space="preserve" text-anchor="middle" x="508.86" y="-436.01" font-family="Arial" font-size="8.00">predicted_revenue</text>
</g>
<!-- f_pr&#45;&gt;Forecasts -->
<g id="edge34" class="edge">
<title>f_pr&#45;&gt;Forecasts</title>
<path fill="none" stroke="#64748b" stroke-width="0.9" d="M465.27,-441.27C457.32,-441.73 448.97,-442.21 440.83,-442.68"/>
</g>
<!-- f_fm -->
<g id="node53" class="node">
<title>f_fm</title>
<ellipse fill="white" stroke="black" cx="229.08" cy="-308.66" rx="41.96" ry="18"/>
<text xml:space="preserve" text-anchor="middle" x="229.08" y="-305.36" font-family="Arial" font-size="9.00">forecast_month</text>
</g>
<!-- f_fm&#45;&gt;Forecasts -->
<g id="edge35" class="edge">
<title>f_fm&#45;&gt;Forecasts</title>
<path fill="none" stroke="#64748b" stroke-width="0.9" d="M248.17,-324.91C279.14,-351.27 339.98,-403.05 370.93,-429.4"/>
</g>
<!-- f_lb -->
<g id="node54" class="node">
<title>f_lb</title>
<ellipse fill="white" stroke="black" cx="308.25" cy="-307.68" rx="36.79" ry="18"/>
<text xml:space="preserve" text-anchor="middle" x="308.25" y="-304.38" font-family="Arial" font-size="9.00">lower_bound</text>
</g>
<!-- f_lb&#45;&gt;Forecasts -->
<g id="edge36" class="edge">
<title>f_lb&#45;&gt;Forecasts</title>
<path fill="none" stroke="#64748b" stroke-width="0.9" d="M318.6,-325.16C334.59,-352.13 365.04,-403.5 380.49,-429.58"/>
</g>
<!-- f_ub -->
<g id="node55" class="node">
<title>f_ub</title>
<ellipse fill="white" stroke="black" cx="384.14" cy="-302.13" rx="37.66" ry="18"/>
<text xml:space="preserve" text-anchor="middle" x="384.14" y="-298.83" font-family="Arial" font-size="9.00">upper_bound</text>
</g>
<!-- f_ub&#45;&gt;Forecasts -->
<g id="edge37" class="edge">
<title>f_ub&#45;&gt;Forecasts</title>
<path fill="none" stroke="#64748b" stroke-width="0.9" d="M384.89,-320.59C386.05,-348.91 388.24,-402.57 389.34,-429.45"/>
</g>
<!-- f_ca -->
<g id="node56" class="node">
<title>f_ca</title>
<ellipse fill="white" stroke="black" cx="455.26" cy="-295.23" rx="30.77" ry="18"/>
<text xml:space="preserve" text-anchor="middle" x="455.26" y="-291.93" font-family="Arial" font-size="9.00">created_at</text>
</g>
<!-- f_ca&#45;&gt;Forecasts -->
<g id="edge38" class="edge">
<title>f_ca&#45;&gt;Forecasts</title>
<path fill="none" stroke="#64748b" stroke-width="0.9" d="M447.52,-313.07C434.69,-342.64 409.22,-401.34 396.94,-429.64"/>
</g>
<!-- i_id -->
<g id="node57" class="node">
<title>i_id</title>
<ellipse fill="white" stroke="black" cx="656.83" cy="-494.27" rx="27" ry="19.23"/>
<text xml:space="preserve" text-anchor="start" x="651.58" y="-495.77" font-family="Arial" font-size="10.00"> </text>
<text xml:space="preserve" text-anchor="start" x="654.58" y="-495.77" font-family="Arial" text-decoration="underline" font-size="10.00">id</text>
<text xml:space="preserve" text-anchor="start" x="645.58" y="-485.77" font-family="Arial" font-size="10.00">(PK) </text>
</g>
<!-- i_id&#45;&gt;Inventory -->
<g id="edge39" class="edge">
<title>i_id&#45;&gt;Inventory</title>
<path fill="none" stroke="#64748b" stroke-width="0.9" d="M657.63,-474.65C657.9,-467.96 658.2,-460.55 658.45,-454.18"/>
</g>
<!-- i_pfk -->
<g id="node58" class="node">
<title>i_pfk</title>
<ellipse fill="white" stroke="black" cx="571.83" cy="-496.27" rx="45.41" ry="18"/>
<text xml:space="preserve" text-anchor="middle" x="571.83" y="-492.77" font-family="Arial" font-size="10.00">product_id (FK)</text>
</g>
<!-- i_pfk&#45;&gt;Inventory -->
<g id="edge40" class="edge">
<title>i_pfk&#45;&gt;Inventory</title>
<path fill="none" stroke="#64748b" stroke-width="0.9" d="M595.22,-480.7C607.44,-472.57 622.38,-462.63 634.74,-454.4"/>
</g>
<!-- i_qty -->
<g id="node59" class="node">
<title>i_qty</title>
<ellipse fill="white" stroke="black" cx="754.92" cy="-469.53" rx="44.97" ry="18"/>
<text xml:space="preserve" text-anchor="middle" x="754.92" y="-466.03" font-family="Arial" font-size="10.00">quantity_added</text>
</g>
<!-- i_qty&#45;&gt;Inventory -->
<g id="edge41" class="edge">
<title>i_qty&#45;&gt;Inventory</title>
<path fill="none" stroke="#64748b" stroke-width="0.9" d="M719.51,-457.95C715.99,-456.8 712.38,-455.61 708.75,-454.43"/>
</g>
<!-- i_dt -->
<g id="node60" class="node">
<title>i_dt</title>
<ellipse fill="white" stroke="black" cx="747.4" cy="-410.97" rx="35.66" ry="18"/>
<text xml:space="preserve" text-anchor="middle" x="747.4" y="-407.47" font-family="Arial" font-size="10.00">date_added</text>
</g>
<!-- i_dt&#45;&gt;Inventory -->
<g id="edge42" class="edge">
<title>i_dt&#45;&gt;Inventory</title>
<path fill="none" stroke="#64748b" stroke-width="0.9" d="M716.52,-420.49C714.33,-421.16 712.09,-421.85 709.83,-422.55"/>
</g>
<!-- i_src -->
<g id="node61" class="node">
<title>i_src</title>
<ellipse fill="white" stroke="black" cx="636.74" cy="-333.98" rx="27" ry="18"/>
<text xml:space="preserve" text-anchor="middle" x="636.74" y="-330.48" font-family="Arial" font-size="10.00">source</text>
</g>
<!-- i_src&#45;&gt;Inventory -->
<g id="edge43" class="edge">
<title>i_src&#45;&gt;Inventory</title>
<path fill="none" stroke="#64748b" stroke-width="0.9" d="M640.63,-352.13C644.86,-371.84 651.56,-403.03 655.62,-421.95"/>
</g>
<!-- i_ca -->
<g id="node62" class="node">
<title>i_ca</title>
<ellipse fill="white" stroke="black" cx="710.87" cy="-328.71" rx="33" ry="18"/>
<text xml:space="preserve" text-anchor="middle" x="710.87" y="-325.21" font-family="Arial" font-size="10.00">created_at</text>
</g>
<!-- i_ca&#45;&gt;Inventory -->
<g id="edge44" class="edge">
<title>i_ca&#45;&gt;Inventory</title>
<path fill="none" stroke="#64748b" stroke-width="0.9" d="M702.55,-346.3C692.66,-367.21 676.3,-401.82 666.72,-422.07"/>
</g>
<!-- sr_id -->
<g id="node63" class="node">
<title>sr_id</title>
<ellipse fill="white" stroke="black" cx="361.39" cy="-201.03" rx="27" ry="18"/>
<text xml:space="preserve" text-anchor="start" x="356.52" y="-202.48" font-family="Arial" font-size="9.00"> </text>
<text xml:space="preserve" text-anchor="start" x="358.77" y="-202.48" font-family="Arial" text-decoration="underline" font-size="9.00">id</text>
<text xml:space="preserve" text-anchor="start" x="351.27" y="-193.48" font-family="Arial" font-size="9.00">(PK) </text>
</g>
<!-- sr_id&#45;&gt;StockRequests -->
<g id="edge45" class="edge">
<title>sr_id&#45;&gt;StockRequests</title>
<path fill="none" stroke="#64748b" stroke-width="0.9" d="M364.28,-182.67C366.56,-168.19 369.7,-148.21 371.88,-134.36"/>
</g>
<!-- sr_pfk -->
<g id="node64" class="node">
<title>sr_pfk</title>
<ellipse fill="white" stroke="black" cx="276.18" cy="-144.91" rx="41.96" ry="18"/>
<text xml:space="preserve" text-anchor="middle" x="276.18" y="-141.61" font-family="Arial" font-size="9.00">product_id (FK)</text>
</g>
<!-- sr_pfk&#45;&gt;StockRequests -->
<g id="edge46" class="edge">
<title>sr_pfk&#45;&gt;StockRequests</title>
<path fill="none" stroke="#64748b" stroke-width="0.9" d="M312.2,-135.15C315.92,-134.14 319.76,-133.1 323.6,-132.06"/>
</g>
<!-- sr_vfk -->
<g id="node65" class="node">
<title>sr_vfk</title>
<ellipse fill="white" stroke="black" cx="277.03" cy="-87.19" rx="40.67" ry="18"/>
<text xml:space="preserve" text-anchor="middle" x="277.03" y="-83.89" font-family="Arial" font-size="9.00">vendor_id (FK)</text>
</g>
<!-- sr_vfk&#45;&gt;StockRequests -->
<g id="edge47" class="edge">
<title>sr_vfk&#45;&gt;StockRequests</title>
<path fill="none" stroke="#64748b" stroke-width="0.9" d="M310.55,-97.89C314.84,-99.26 319.3,-100.69 323.79,-102.12"/>
</g>
<!-- sr_qty -->
<g id="node66" class="node">
<title>sr_qty</title>
<ellipse fill="white" stroke="black" cx="482.73" cy="-153.93" rx="44.39" ry="18"/>
<text xml:space="preserve" text-anchor="middle" x="482.73" y="-151.2" font-family="Arial" font-size="8.00">requested_quantity</text>
</g>
<!-- sr_qty&#45;&gt;StockRequests -->
<g id="edge48" class="edge">
<title>sr_qty&#45;&gt;StockRequests</title>
<path fill="none" stroke="#64748b" stroke-width="0.9" d="M447.86,-142.45C440.19,-139.93 431.93,-137.21 423.81,-134.54"/>
</g>
<!-- sr_st -->
<g id="node67" class="node">
<title>sr_st</title>
<ellipse fill="white" stroke="black" cx="483.72" cy="-96.39" rx="27" ry="18"/>
<text xml:space="preserve" text-anchor="middle" x="483.72" y="-93.09" font-family="Arial" font-size="9.00">status</text>
</g>
<!-- sr_st&#45;&gt;StockRequests -->
<g id="edge49" class="edge">
<title>sr_st&#45;&gt;StockRequests</title>
<path fill="none" stroke="#64748b" stroke-width="0.9" d="M457.53,-101.63C447.81,-103.58 436.41,-105.86 425.23,-108.1"/>
</g>
<!-- sr_dt -->
<g id="node68" class="node">
<title>sr_dt</title>
<ellipse fill="white" stroke="black" cx="379.24" cy="-18" rx="36.79" ry="18"/>
<text xml:space="preserve" text-anchor="middle" x="379.24" y="-14.7" font-family="Arial" font-size="9.00">request_date</text>
</g>
<!-- sr_dt&#45;&gt;StockRequests -->
<g id="edge50" class="edge">
<title>sr_dt&#45;&gt;StockRequests</title>
<path fill="none" stroke="#64748b" stroke-width="0.9" d="M378.35,-36.39C377.45,-55.17 376.06,-84.02 375.2,-101.99"/>
</g>
</g>
</svg>
